<?xml version="1.0" encoding="utf-8"?>
<!-- Generator: Adobe Illustrator 22.1.0, SVG Export Plug-In . SVG Version: 6.00 Build 0)  -->
<svg version="1.1" id="Capa_1" xmlns="http://www.w3.org/2000/svg" xmlns:xlink="http://www.w3.org/1999/xlink" x="0px" y="0px"
	 viewBox="0 0 84 32.3" style="enable-background:new 0 0 84 32.3;" xml:space="preserve">
<style type="text/css">
	.st0{fill:#FFE000;}
	.st1{font-family:'MyriadPro-Semibold';}
	.st2{font-size:7.9305px;}
	.st3{fill:#FFFFFF;}
	.st4{font-size:12.5566px;}
</style>
<g>
	<path class="st0" d="M24.2,27.9l-4.9,1.8c-0.1,0-0.2,0-0.2,0c-0.1,0-0.2,0-0.2,0l-5.1-1.8c1.7-1.9,3.6-3.7,5.3-5.6
		C20.9,24.1,22.5,26,24.2,27.9z M33.7,5.2C33.5,5,33.3,5,33.1,5.1l-14,5l-14-5C4.9,5,4.7,5,4.5,5.2C4.3,5.3,4.2,5.5,4.2,5.7v18.2
		c0,0.3,0.2,0.5,0.5,0.6l7.5,2.7c2-1.9,4.1-3.8,6.1-5.7c-0.6-0.7-1.3-1.4-1.9-2.1c-1.4,1-3.4,0.6-4.6-0.9c-1.3-1.6-2.4-4.4-1.3-5.6
		c1.2-1.1,4,0,5.6,1.3c1.5,1.2,1.9,3.2,0.9,4.6c0.7,0.7,1.5,1.3,2.2,1.9c0.7-0.6,1.2-1.2,1.8-1.8c-0.6-0.9-0.2-2.3,0.7-3
		c1-0.9,4.9-4.2,5-4.1c0.1,0.1-2.6,2.6-4.4,4.4l0.3,0.3c1.9-1.7,4.6-4.2,4.7-4.1c0.1,0.1-2.5,2.7-4.2,4.6l0.3,0.3
		c1.9-1.7,4.5-4.3,4.6-4.2c0.1,0.1-2.4,2.8-4.1,4.7l0.3,0.3c1.8-1.8,4.3-4.5,4.4-4.4c0.1,0.1-4,5-4,5c0,0,0.9-1,0,0
		c-0.8,1-2.1,1.3-3,0.7c-0.6,0.6-1.2,1.3-1.8,1.9c2.1,1.9,4.1,3.9,6.2,5.8l7.6-2.8c0.3-0.1,0.5-0.4,0.5-0.6V5.7
		C34,5.5,33.9,5.3,33.7,5.2z"/>
</g>
<text transform="matrix(1 0 0 1 36.0916 14.0449)" class="st0 st1 st2">KINGSMAN’S</text>
<text transform="matrix(1 0 0 1 36.5877 23.8633)" class="st3 st1 st4">RECIPES</text>
</svg>
