<?xml version="1.0" encoding="utf-8"?>
<!-- Generator: Adobe Illustrator 22.1.0, SVG Export Plug-In . SVG Version: 6.00 Build 0)  -->
<svg version="1.1" id="Capa_1" xmlns="http://www.w3.org/2000/svg" xmlns:xlink="http://www.w3.org/1999/xlink" x="0px" y="0px"
	 viewBox="0 0 220.2 84.7" style="enable-background:new 0 0 220.2 84.7;" xml:space="preserve">
<style type="text/css">
	.st0{fill:#FFE000;}
	.st1{font-family:'MyriadPro-Semibold';}
	.st2{font-size:21.3825px;}
	.st3{fill:#FFFFFF;}
	.st4{font-size:33.8556px;}
</style>
<g>
	<path class="st0" d="M58.1,66.7l-13.2,4.9c-0.3,0-0.5,0-0.5,0c-0.3,0-0.5,0-0.5,0l-13.8-4.9c4.6-5.1,9.7-10,14.3-15.1
		C49.2,56.4,53.5,61.6,58.1,66.7z M83.7,5.5c-0.5-0.5-1.1-0.5-1.6-0.3L44.4,18.7L6.6,5.2C6.1,4.9,5.5,4.9,5,5.5
		C4.5,5.8,4.2,6.3,4.2,6.8v49.1c0,0.8,0.5,1.3,1.3,1.6l20.2,7.3c5.4-5.1,11.1-10.2,16.4-15.4c-1.6-1.9-3.5-3.8-5.1-5.7
		c-3.8,2.7-9.2,1.6-12.4-2.4c-3.5-4.3-6.5-11.9-3.5-15.1c3.2-3,10.8,0,15.1,3.5c4,3.2,5.1,8.6,2.4,12.4c1.9,1.9,4,3.5,5.9,5.1
		c1.9-1.6,3.2-3.2,4.9-4.9c-1.6-2.4-0.5-6.2,1.9-8.1c2.7-2.4,13.2-11.3,13.5-11.1c0.3,0.3-7,7-11.9,11.9l0.8,0.8
		c5.1-4.6,12.4-11.3,12.7-11.1c0.3,0.3-6.7,7.3-11.3,12.4l0.8,0.8c5.1-4.6,12.1-11.6,12.4-11.3c0.3,0.3-6.5,7.5-11.1,12.7l0.8,0.8
		C63,35.4,69.7,28.1,70,28.4c0.3,0.3-10.8,13.5-10.8,13.5s2.4-2.7,0,0c-2.2,2.7-5.7,3.5-8.1,1.9c-1.6,1.6-3.2,3.5-4.9,5.1
		C51.9,54,57.3,59.4,63,64.5L83.5,57c0.8-0.3,1.3-1.1,1.3-1.6V6.8C84.5,6.3,84.3,5.8,83.7,5.5z"/>
</g>
<text transform="matrix(1 0 0 1 90.1885 29.3301)" class="st0 st1 st2">KINGSMAN’S</text>
<text transform="matrix(1 0 0 1 91.5264 55.8027)" class="st3 st1 st4">RECIPES</text>
</svg>
